<?xml version="1.0" encoding="utf-8"?>
<svg fill="#000000" width="800px" height="800px" viewBox="0 0 24 24" id="add-user-square" data-name="Line Color"
    xmlns="http://www.w3.org/2000/svg" class="icon line-color">
    <path id="secondary" d="M13,7.13A3.66,3.66,0,0,0,12,7a4,4,0,1,0,3.46,6"
        style="fill: none; stroke: rgb(0, 0, 0); stroke-linecap: round; stroke-linejoin: round; stroke-width: 1.5;" />
    <path id="secondary-2" d="M12,15h0a5,5,0,0,0-5,5v1H17V20A5,5,0,0,0,12,15Zm5-6h4M19,7v4"
        style="fill: none; stroke: rgb(0, 0, 0); stroke-linecap: round; stroke-linejoin: round; stroke-width: 1.5;" />
    <path id="primary" d="M21,15v5a1,1,0,0,1-1,1H4a1,1,0,0,1-1-1V4A1,1,0,0,1,4,3H19"
        style="fill: none; stroke: rgb(0, 0, 0); stroke-linecap: round; stroke-linejoin: round; stroke-width: 1.5;" />
</svg>